<svg width="50" height="50" viewBox="0 0 50 50" fill="none" xmlns="http://www.w3.org/2000/svg">
  <path d="M36.2207 26.0181C36.1657 19.9256 41.1582 17.0756 41.3232 16.9831C38.7982 13.2506 34.8057 12.7506 33.3982 12.7131C30.0607 12.3631 26.8232 14.6506 25.1232 14.6506C23.3857 14.6506 20.7607 12.7506 17.9482 12.8056C14.3232 12.8606 10.9482 14.8606 9.11074 17.9831C5.32324 24.3631 8.08574 33.8056 11.7107 39.0556C13.5232 41.6181 15.6232 44.4681 18.3857 44.3631C21.0857 44.2506 22.0857 42.6181 25.3232 42.6181C28.5232 42.6181 29.4857 44.3631 32.3232 44.2881C35.2482 44.2506 37.0607 41.7131 38.8232 39.1181C40.9107 36.1556 41.7607 33.2506 41.7982 33.1181C41.7232 33.0931 36.2832 30.9306 36.2207 26.0181Z" fill="#0071e3"/>
  <path d="M31.4482 9.39307C32.9107 7.58057 33.8857 5.09307 33.6232 2.56807C31.4857 2.66807 28.8232 4.03057 27.3107 5.80557C25.9482 7.36807 24.7982 9.93057 25.0982 12.3806C27.4857 12.5681 29.9482 11.1681 31.4482 9.39307Z" fill="#0071e3"/>
</svg>